<mxfile host="app.diagrams.net" modified="2023-07-28T07:52:03.157Z" agent="Mozilla/5.0 (Windows NT 10.0; Win64; x64) AppleWebKit/537.36 (KHTML, like Gecko) Chrome/114.0.0.0 Safari/537.36" etag="OL2SUc0eFCuesyyuZ1cG" version="21.6.5" type="github">
  <diagram name="Page-1" id="XNMWYyTbV4WslVUSJo1j">
    <mxGraphModel dx="794" dy="478" grid="1" gridSize="10" guides="1" tooltips="1" connect="1" arrows="1" fold="1" page="1" pageScale="1" pageWidth="850" pageHeight="1100" math="0" shadow="0">
      <root>
        <mxCell id="0" />
        <mxCell id="1" parent="0" />
        <mxCell id="xbuH9Vyik55a1dMHLZAj-4" style="edgeStyle=orthogonalEdgeStyle;rounded=0;orthogonalLoop=1;jettySize=auto;html=1;" edge="1" parent="1" source="xbuH9Vyik55a1dMHLZAj-1" target="xbuH9Vyik55a1dMHLZAj-3">
          <mxGeometry relative="1" as="geometry" />
        </mxCell>
        <mxCell id="xbuH9Vyik55a1dMHLZAj-1" value="" style="shape=image;html=1;verticalAlign=top;verticalLabelPosition=bottom;labelBackgroundColor=#ffffff;imageAspect=0;aspect=fixed;image=https://cdn4.iconfinder.com/data/icons/socialcones/508/Gitlab-128.png" vertex="1" parent="1">
          <mxGeometry x="60" y="135" width="110" height="110" as="geometry" />
        </mxCell>
        <mxCell id="xbuH9Vyik55a1dMHLZAj-7" style="edgeStyle=orthogonalEdgeStyle;rounded=0;orthogonalLoop=1;jettySize=auto;html=1;" edge="1" parent="1" source="xbuH9Vyik55a1dMHLZAj-3" target="xbuH9Vyik55a1dMHLZAj-5">
          <mxGeometry relative="1" as="geometry" />
        </mxCell>
        <mxCell id="xbuH9Vyik55a1dMHLZAj-15" style="edgeStyle=orthogonalEdgeStyle;rounded=0;orthogonalLoop=1;jettySize=auto;html=1;entryX=0;entryY=0.5;entryDx=0;entryDy=0;" edge="1" parent="1" source="xbuH9Vyik55a1dMHLZAj-3" target="xbuH9Vyik55a1dMHLZAj-10">
          <mxGeometry relative="1" as="geometry" />
        </mxCell>
        <mxCell id="xbuH9Vyik55a1dMHLZAj-3" value="Ansible" style="verticalLabelPosition=bottom;shadow=0;dashed=0;align=center;html=1;verticalAlign=top;shape=mxgraph.electrical.abstract.amplifier;" vertex="1" parent="1">
          <mxGeometry x="220" y="140" width="90" height="100" as="geometry" />
        </mxCell>
        <mxCell id="xbuH9Vyik55a1dMHLZAj-10" value="Server contents" style="points=[[0,0],[0.25,0],[0.5,0],[0.75,0],[1,0],[1,0.25],[1,0.5],[1,0.75],[1,1],[0.75,1],[0.5,1],[0.25,1],[0,1],[0,0.75],[0,0.5],[0,0.25]];outlineConnect=0;gradientColor=none;html=1;whiteSpace=wrap;fontSize=12;fontStyle=0;container=1;pointerEvents=0;collapsible=0;recursiveResize=0;shape=mxgraph.aws4.group;grIcon=mxgraph.aws4.group_on_premise;strokeColor=#5A6C86;fillColor=none;verticalAlign=top;align=left;spacingLeft=30;fontColor=#5A6C86;dashed=0;" vertex="1" parent="1">
          <mxGeometry x="425" y="250" width="185" height="179" as="geometry" />
        </mxCell>
        <mxCell id="xbuH9Vyik55a1dMHLZAj-12" style="edgeStyle=orthogonalEdgeStyle;rounded=0;orthogonalLoop=1;jettySize=auto;html=1;entryX=0;entryY=0.473;entryDx=0;entryDy=0;entryPerimeter=0;" edge="1" parent="xbuH9Vyik55a1dMHLZAj-10" source="xbuH9Vyik55a1dMHLZAj-6" target="xbuH9Vyik55a1dMHLZAj-2">
          <mxGeometry relative="1" as="geometry" />
        </mxCell>
        <mxCell id="xbuH9Vyik55a1dMHLZAj-6" value="Prometheus" style="html=1;shape=mxgraph.sysml.paramSet;whiteSpace=wrap;align=center;" vertex="1" parent="xbuH9Vyik55a1dMHLZAj-10">
          <mxGeometry x="15" y="35" width="95" height="60" as="geometry" />
        </mxCell>
        <mxCell id="xbuH9Vyik55a1dMHLZAj-13" style="edgeStyle=orthogonalEdgeStyle;rounded=0;orthogonalLoop=1;jettySize=auto;html=1;" edge="1" parent="xbuH9Vyik55a1dMHLZAj-10" source="xbuH9Vyik55a1dMHLZAj-2">
          <mxGeometry relative="1" as="geometry">
            <mxPoint x="235" y="140.39999999999998" as="targetPoint" />
          </mxGeometry>
        </mxCell>
        <mxCell id="xbuH9Vyik55a1dMHLZAj-2" value="" style="image;aspect=fixed;html=1;points=[];align=center;fontSize=12;image=img/lib/azure2/other/Grafana.svg;" vertex="1" parent="xbuH9Vyik55a1dMHLZAj-10">
          <mxGeometry x="95" y="114" width="68" height="52.800000000000004" as="geometry" />
        </mxCell>
        <mxCell id="xbuH9Vyik55a1dMHLZAj-14" value="Server contents" style="points=[[0,0],[0.25,0],[0.5,0],[0.75,0],[1,0],[1,0.25],[1,0.5],[1,0.75],[1,1],[0.75,1],[0.5,1],[0.25,1],[0,1],[0,0.75],[0,0.5],[0,0.25]];outlineConnect=0;gradientColor=none;html=1;whiteSpace=wrap;fontSize=12;fontStyle=0;container=1;pointerEvents=0;collapsible=0;recursiveResize=0;shape=mxgraph.aws4.group;grIcon=mxgraph.aws4.group_on_premise;strokeColor=#5A6C86;fillColor=none;verticalAlign=top;align=left;spacingLeft=30;fontColor=#5A6C86;dashed=0;" vertex="1" parent="1">
          <mxGeometry x="405" y="50" width="155" height="160" as="geometry" />
        </mxCell>
        <mxCell id="xbuH9Vyik55a1dMHLZAj-5" value="Target Servers" style="sketch=0;outlineConnect=0;fontColor=#232F3E;gradientColor=none;fillColor=#232F3D;strokeColor=none;dashed=0;verticalLabelPosition=bottom;verticalAlign=top;align=center;html=1;fontSize=12;fontStyle=0;aspect=fixed;pointerEvents=1;shape=mxgraph.aws4.servers;" vertex="1" parent="xbuH9Vyik55a1dMHLZAj-14">
          <mxGeometry x="43.5" y="41" width="78" height="78" as="geometry" />
        </mxCell>
        <mxCell id="xbuH9Vyik55a1dMHLZAj-16" style="edgeStyle=orthogonalEdgeStyle;rounded=0;orthogonalLoop=1;jettySize=auto;html=1;entryX=0.5;entryY=0;entryDx=0;entryDy=0;entryPerimeter=0;" edge="1" parent="1" source="xbuH9Vyik55a1dMHLZAj-5" target="xbuH9Vyik55a1dMHLZAj-6">
          <mxGeometry relative="1" as="geometry" />
        </mxCell>
      </root>
    </mxGraphModel>
  </diagram>
</mxfile>
